<svg xmlns="http://www.w3.org/2000/svg">
    <defs>
        <symbol id="arrow-link" viewBox="0 0 11 11" fill="none">
            <path xmlns="http://www.w3.org/2000/svg" d="M11 0.999999C11 0.447714 10.5523 -1.19828e-06 10 -7.53533e-07L1 -5.84945e-07C0.447715 -5.61668e-07 -1.57636e-07 0.447715 -1.34359e-07 1C-1.11082e-07 1.55228 0.447715 2 1 2L9 2V10C9 10.5523 9.44772 11 10 11C10.5523 11 11 10.5523 11 10L11 0.999999ZM1.70711 10.7071L10.7071 1.70711L9.29289 0.292892L0.292893 9.29289L1.70711 10.7071Z" fill="currentColor"/>
        </symbol>
        <symbol id="tech-article" viewBox="0 0 15 15" fill="none">
            <path xmlns="http://www.w3.org/2000/svg" d="M12.3913 0.326172H2.60872C2.25002 0.326172 1.95654 0.61965 1.95654 0.978346V14.0218C1.95654 14.3805 2.25002 14.674 2.60872 14.674H12.3913C12.75 14.674 13.0435 14.3805 13.0435 14.0218V0.978346C13.0435 0.61965 12.75 0.326172 12.3913 0.326172ZM11.7392 13.3697H3.26089V1.63052H11.7392V13.3697ZM4.64676 10.5979C4.64676 10.2392 4.94024 9.94574 5.29893 9.94574H9.70111C10.0598 9.94574 10.3533 10.2392 10.3533 10.5979C10.3533 10.9566 10.0598 11.2501 9.70111 11.2501H5.29893C4.94024 11.2501 4.64676 10.9566 4.64676 10.5979ZM4.74459 7.50009C4.74459 7.14139 5.03806 6.84791 5.39676 6.84791H9.6848C10.0435 6.84791 10.337 7.14139 10.337 7.50009C10.337 7.85878 10.0435 8.15226 9.6848 8.15226H5.39676C5.03806 8.15226 4.74459 7.85878 4.74459 7.50009ZM4.74459 4.40226C4.74459 4.04356 5.03806 3.75009 5.39676 3.75009H9.6848C10.0435 3.75009 10.337 4.04356 10.337 4.40226C10.337 4.76095 10.0435 5.05443 9.6848 5.05443H5.39676C5.03806 5.05443 4.74459 4.76095 4.74459 4.40226Z" fill="currentColor"/>
        </symbol>
        <symbol id="drag-left" viewBox="0 0 31 31" fill="none">
            <path xmlns="http://www.w3.org/2000/svg" d="M16.7918 29.0625L10.101 22.4233C9.85769 22.1815 9.66499 21.8936 9.53414 21.5764C9.4033 21.2593 9.33693 20.9193 9.33891 20.5762C9.33891 19.8911 9.61108 19.234 10.0956 18.7495C10.58 18.2651 11.2371 17.9929 11.9222 17.9929C12.2653 17.9909 12.6053 18.0573 12.9224 18.1881C13.2396 18.319 13.5275 18.5117 13.7693 18.755L15.5002 20.4342V8.24082C15.4948 7.61008 15.7204 6.99918 16.1344 6.5233C16.5484 6.04743 17.1222 5.73947 17.7477 5.65749C18.1061 5.62513 18.4673 5.67328 18.8047 5.79843C19.1422 5.92358 19.4474 6.12256 19.6981 6.38082C19.9327 6.60358 20.1191 6.87213 20.2458 7.16985C20.3724 7.46757 20.4366 7.78813 20.4343 8.11166V15.5L26.8927 16.43C27.4804 16.5139 28.0182 16.807 28.4073 17.2554C28.7964 17.7038 29.0107 18.2775 29.011 18.8712C29.0139 22.3286 28.2089 25.7389 26.6602 28.83L26.5439 29.0625" stroke="currentColor" stroke-width="2" stroke-miterlimit="10"/>
            <path xmlns="http://www.w3.org/2000/svg" d="M20.4342 13.7435C21.1461 13.4422 21.7914 13.0033 22.333 12.4518C23.1964 11.5883 23.7845 10.4882 24.0227 9.29051C24.2609 8.09284 24.1386 6.85143 23.6713 5.72326C23.204 4.59508 22.4126 3.63081 21.3973 2.95239C20.382 2.27397 19.1883 1.91187 17.9671 1.91187C16.746 1.91187 15.5523 2.27397 14.537 2.95239C13.5216 3.63081 12.7303 4.59508 12.263 5.72326C11.7957 6.85143 11.6734 8.09284 11.9116 9.29051C12.1498 10.4882 12.7378 11.5883 13.6013 12.4518C14.1429 13.0033 14.7882 13.4422 15.5001 13.7435" stroke="currentColor" stroke-width="2" stroke-miterlimit="10"/>
            <path xmlns="http://www.w3.org/2000/svg" d="M5.63167 11.8058L1.9375 8.09871L5.63167 4.40454" stroke="currentColor" stroke-width="2" stroke-miterlimit="10"/>
            <path xmlns="http://www.w3.org/2000/svg" d="M11.8058 8.09863H1.9375" stroke="currentColor" stroke-width="2" stroke-miterlimit="10"/>
        </symbol>
        <symbol id="filter" viewBox="0 0 20 20" fill="none">
            <path xmlns="http://www.w3.org/2000/svg" d="M19 2.75857C19 2.14306 18.9996 1.83506 18.8769 1.59997C18.7692 1.39317 18.5976 1.22516 18.386 1.11978C18.1453 1 17.8297 1 17.1995 1H2.79956C2.1695 1 1.85479 1 1.61414 1.11978C1.40246 1.22516 1.23048 1.39317 1.12261 1.59997C1 1.83506 1 2.14306 1 2.75857V3.56885C1 3.83767 1 3.97217 1.03108 4.09866C1.05865 4.2108 1.10421 4.31793 1.16589 4.41626C1.23544 4.52713 1.3329 4.62234 1.52734 4.8123L7.22293 10.3765C7.41748 10.5665 7.51424 10.661 7.58381 10.772C7.6455 10.8703 7.69168 10.9777 7.71924 11.09C7.75 11.2151 7.75 11.348 7.75 11.6115V16.8383C7.75 17.7804 7.75 18.2517 7.95306 18.5354C8.13048 18.7831 8.40408 18.9484 8.71019 18.9926C9.06074 19.0432 9.49229 18.8327 10.3548 18.4114L11.2548 17.9718C11.6161 17.7954 11.7962 17.7068 11.9281 17.5752C12.0448 17.4588 12.1341 17.3191 12.1885 17.1651C12.25 16.9909 12.25 16.7932 12.25 16.3987V11.6196C12.25 11.3508 12.25 11.2165 12.2811 11.09C12.3086 10.9777 12.3542 10.8703 12.4159 10.772C12.485 10.6618 12.5815 10.5675 12.7735 10.38L12.7774 10.3765L18.4729 4.8123C18.6674 4.62222 18.7642 4.52717 18.8338 4.41626C18.8955 4.31793 18.9417 4.2108 18.9693 4.09866C19 3.97346 19 3.8404 19 3.57703V2.75857Z" stroke="currentColor" stroke-width="2" stroke-linecap="round" stroke-linejoin="round"/>
        </symbol>
        <symbol id="blog" viewBox="0 0 16 16" fill="none">
            <path xmlns="http://www.w3.org/2000/svg" d="M2.14159 14.2584C1.96564 14.0824 1.93274 14.0057 1.93274 13.7716C1.93274 13.3274 2.31923 13.0161 2.76503 13.1014C2.85116 13.1174 3.00319 13.2134 3.10289 13.3126C3.41922 13.6289 3.33157 14.1958 2.93499 14.3986C2.66593 14.5362 2.36651 14.4832 2.14159 14.2584ZM4.02131 13.1722C3.43426 12.9065 3.13514 12.452 3.13514 11.8258C3.13514 10.5092 4.68621 9.85872 5.61373 10.7863C5.90084 11.0734 6.04576 11.422 6.04576 11.8258C6.04576 12.8713 4.95665 13.5956 4.02131 13.1722ZM6.97631 10.9331C6.32501 10.7519 5.7496 10.3112 5.18824 9.56375C5.04935 9.37872 5.01902 9.36558 4.86664 9.42375C4.58066 9.53346 3.947 9.56901 3.5606 9.49804C2.03245 9.21827 0.92479 7.68078 1.17962 6.19301C1.34101 5.25084 2.11937 4.21072 2.97894 3.78844C3.50505 3.52992 4.18886 3.38809 4.67653 3.43621L5.05532 3.47392L5.09866 3.27312C5.26189 2.51701 6.13568 1.80855 7.17769 1.58741C7.6715 1.48226 8.3968 1.51426 8.97579 1.66512C9.78033 1.87461 10.4748 2.43324 10.8089 3.13941C10.9365 3.40912 10.9931 3.47301 11.0744 3.43918C11.2852 3.35118 12.3591 3.33289 12.6909 3.41175C13.668 3.64204 14.3362 4.25804 14.6928 5.25758C14.8359 5.65849 14.8561 5.80935 14.8573 6.48261C14.8584 7.16261 14.8394 7.30558 14.6909 7.73129C14.4821 8.33015 14.2102 8.75724 13.7822 9.15849C13.3685 9.54627 12.9081 9.77427 12.2797 9.90238C11.8584 9.98809 11.703 9.99152 11.132 9.92638L10.4716 9.85095L9.99539 10.2346C9.73347 10.4457 9.33949 10.7033 9.11988 10.8072C8.75568 10.9794 8.65852 10.9974 8.01417 11.0113C7.53177 11.0227 7.20263 10.9976 6.97631 10.9347L6.97631 10.9331Z" fill="currentColor"/>
        </symbol>
        <symbol id="video" viewBox="0 0 14 14" fill="none">
            <path xmlns="http://www.w3.org/2000/svg" d="M11.6665 7.00011L3.49984 11.7151L3.49984 2.28508L11.6665 7.00011Z" fill="currentColor"/>
            <rect xmlns="http://www.w3.org/2000/svg" x="1" y="1" width="12" height="12" stroke="currentColor" stroke-width="2"/>
        </symbol>
        <symbol id="grid-blocks" viewBox="0 -4 30 22" fill="none">
            <rect opacity="0.65" x="16" y="8" width="14" height="6" fill="currentColor"/>
            <rect opacity="0.65" y="8" width="14" height="6" fill="currentColor"/>
            <rect opacity="0.65" x="16" width="14" height="6" fill="currentColor"/>
            <rect width="14" height="6" fill="currentColor"/>
        </symbol>
        <symbol id="grid-rows" viewBox="0 0 30 14" fill="none">
            <rect opacity="0.65" y="11" width="30" height="3" fill="currentColor"/>
            <rect y="5" width="30" height="4" fill="currentColor"/>
            <rect opacity="0.65" width="30" height="3" fill="currentColor"/>
        </symbol>
        <symbol id="code" viewBox="0 0 25 14" fill="none">
            <rect x="1" y="1" width="23" height="12" stroke="currentColor" stroke-width="2"/>
            <path d="M10.4161 10.8882C10.2109 10.8886 10.0102 10.832 9.83911 10.7253C9.72547 10.6554 9.62773 10.5648 9.55158 10.459C9.47543 10.3531 9.42239 10.234 9.39555 10.1087C9.3687 9.98331 9.36859 9.85418 9.39521 9.72878C9.42184 9.60338 9.47467 9.48422 9.55063 9.37823L13.7164 3.55029C13.8701 3.3348 14.1083 3.1855 14.3786 3.13511C14.649 3.08472 14.9295 3.13735 15.1588 3.28146C15.2724 3.35141 15.3702 3.44195 15.4463 3.54782C15.5225 3.65369 15.5755 3.77276 15.6023 3.89812C15.6292 4.02348 15.6293 4.15262 15.6027 4.27802C15.5761 4.40342 15.5232 4.52258 15.4473 4.62856L11.2815 10.4565C11.1857 10.5901 11.0564 10.6993 10.9051 10.7746C10.7538 10.8499 10.5851 10.8889 10.414 10.8882H10.4161ZM21.5678 7.69265L18.4435 10.6066C18.2453 10.7876 17.9801 10.8889 17.7041 10.8889C17.428 10.8889 17.1628 10.7876 16.9646 10.6066C16.868 10.5163 16.7912 10.4089 16.7389 10.2905C16.6865 10.1721 16.6596 10.0451 16.6596 9.91688C16.6596 9.78863 16.6865 9.66165 16.7389 9.54326C16.7912 9.42488 16.868 9.31744 16.9646 9.22714L19.3495 7.00291L16.9646 4.76886C16.8677 4.67934 16.7906 4.57248 16.738 4.45455C16.6854 4.33662 16.6583 4.20999 16.6583 4.08207C16.6583 3.95415 16.6854 3.82752 16.738 3.70959C16.7906 3.59166 16.8677 3.4848 16.9646 3.39527C17.1622 3.2131 17.4276 3.11108 17.7041 3.11108C17.9805 3.11108 18.2459 3.2131 18.4435 3.39527L21.5678 6.30924C21.6651 6.39961 21.7424 6.5073 21.7951 6.62604C21.8478 6.74479 21.875 6.87223 21.875 7.00095C21.875 7.12966 21.8478 7.2571 21.7951 7.37585C21.7424 7.49459 21.6651 7.60228 21.5678 7.69265ZM8.03325 9.22714C8.12992 9.31744 8.20665 9.42488 8.25901 9.54326C8.31137 9.66165 8.33833 9.78863 8.33833 9.91688C8.33833 10.0451 8.31137 10.1721 8.25901 10.2905C8.20665 10.4089 8.12992 10.5163 8.03325 10.6066C7.83506 10.7876 7.56986 10.8889 7.29383 10.8889C7.01779 10.8889 6.75259 10.7876 6.5544 10.6066L3.43008 7.69265C3.33341 7.60234 3.25668 7.4949 3.20432 7.37652C3.15196 7.25814 3.125 7.13116 3.125 7.00291C3.125 6.87466 3.15196 6.74768 3.20432 6.62929C3.25668 6.51091 3.33341 6.40347 3.43008 6.31317L6.5544 3.3992C6.75195 3.21703 7.01739 3.11501 7.29383 3.11501C7.57026 3.11501 7.8357 3.21703 8.03325 3.3992C8.13024 3.48872 8.20729 3.59558 8.25989 3.71351C8.31249 3.83144 8.33958 3.95807 8.33958 4.08599C8.33958 4.21391 8.31249 4.34055 8.25989 4.45848C8.20729 4.57641 8.13024 4.68326 8.03325 4.77279L5.64835 7.00291L8.03325 9.22714Z" fill="currentColor"/>
        </symbol>
    </defs>
</svg>